<?xml version="1.0" encoding="UTF-8" standalone="no"?>
<!-- Created with Inkscape (http://www.inkscape.org/) -->

<svg
   xmlns:dc="http://purl.org/dc/elements/1.1/"
   xmlns:cc="http://creativecommons.org/ns#"
   xmlns:rdf="http://www.w3.org/1999/02/22-rdf-syntax-ns#"
   xmlns:svg="http://www.w3.org/2000/svg"
   xmlns="http://www.w3.org/2000/svg"
   xmlns:xlink="http://www.w3.org/1999/xlink"
   xmlns:sodipodi="http://sodipodi.sourceforge.net/DTD/sodipodi-0.dtd"
   xmlns:inkscape="http://www.inkscape.org/namespaces/inkscape"
   width="16"
   height="16"
   viewBox="0 0 16 15.999999"
   id="svg3374"
   version="1.1"
   inkscape:version="0.91 r13725"
   sodipodi:docname="radio.svg">
  <defs
     id="defs3376" />
  <sodipodi:namedview
     id="base"
     pagecolor="#ffffff"
     bordercolor="#666666"
     borderopacity="1.0"
     inkscape:pageopacity="0.0"
     inkscape:pageshadow="2"
     inkscape:zoom="44.8"
     inkscape:cx="4.1967117"
     inkscape:cy="7.3429398"
     inkscape:document-units="px"
     inkscape:current-layer="layer1"
     showgrid="true"
     units="px"
     showborder="true"
     inkscape:window-width="1878"
     inkscape:window-height="1171"
     inkscape:window-x="42"
     inkscape:window-y="0"
     inkscape:window-maximized="1"
     fit-margin-top="0"
     fit-margin-left="1.9428903e-16"
     fit-margin-right="0"
     fit-margin-bottom="0">
    <inkscape:grid
       type="xygrid"
       id="grid4296"
       originx="0.03771"
       originy="0.028519852" />
  </sodipodi:namedview>
  <metadata
     id="metadata3379">
    <rdf:RDF>
      <cc:Work
         rdf:about="">
        <dc:format>image/svg+xml</dc:format>
        <dc:type
           rdf:resource="http://purl.org/dc/dcmitype/StillImage" />
        <dc:title></dc:title>
      </cc:Work>
    </rdf:RDF>
  </metadata>
  <g
     inkscape:label="Layer 1"
     inkscape:groupmode="layer"
     id="layer1"
     transform="translate(-396.46472,-578.76653)">
    <path
       style="color:#000000;font-style:normal;font-variant:normal;font-weight:normal;font-stretch:normal;font-size:medium;line-height:normal;font-family:sans-serif;text-indent:0;text-align:start;text-decoration:none;text-decoration-line:none;text-decoration-style:solid;text-decoration-color:#000000;letter-spacing:normal;word-spacing:normal;text-transform:none;direction:ltr;block-progression:tb;writing-mode:lr-tb;baseline-shift:baseline;text-anchor:start;white-space:normal;clip-rule:nonzero;display:inline;overflow:visible;visibility:visible;opacity:1;isolation:auto;mix-blend-mode:normal;color-interpolation:sRGB;color-interpolation-filters:linearRGB;solid-color:#000000;solid-opacity:1;fill:#4d4d4d;fill-opacity:1;fill-rule:nonzero;stroke:none;stroke-width:0.46140653;stroke-linecap:round;stroke-linejoin:miter;stroke-miterlimit:4;stroke-dasharray:none;stroke-dashoffset:0;stroke-opacity:1;color-rendering:auto;image-rendering:auto;shape-rendering:auto;text-rendering:auto;enable-background:accumulate"
       d="m 408.44245,580.80425 a 0.37615587,0.33691729 0 0 0 -0.23245,0.58751 c 1.85934,1.52906 1.97846,3.81497 0.29295,5.4531 a 0.3763542,0.33709494 0 0 0 0.55405,0.45634 c 1.94082,-1.88628 1.78952,-4.65388 -0.34069,-6.4057 a 0.37615587,0.33691729 0 0 0 -0.27386,-0.0913 z"
       id="path12674"
       inkscape:connector-curvature="0" />
    <path
       style="color:#000000;font-style:normal;font-variant:normal;font-weight:normal;font-stretch:normal;font-size:medium;line-height:normal;font-family:sans-serif;text-indent:0;text-align:start;text-decoration:none;text-decoration-line:none;text-decoration-style:solid;text-decoration-color:#000000;letter-spacing:normal;word-spacing:normal;text-transform:none;direction:ltr;block-progression:tb;writing-mode:lr-tb;baseline-shift:baseline;text-anchor:start;white-space:normal;clip-rule:nonzero;display:inline;overflow:visible;visibility:visible;opacity:1;isolation:auto;mix-blend-mode:normal;color-interpolation:sRGB;color-interpolation-filters:linearRGB;solid-color:#000000;solid-opacity:1;fill:#4d4d4d;fill-opacity:1;fill-rule:nonzero;stroke:none;stroke-width:0.37372133;stroke-linecap:round;stroke-linejoin:round;stroke-miterlimit:5;stroke-dasharray:none;stroke-dashoffset:0;stroke-opacity:1;color-rendering:auto;image-rendering:auto;shape-rendering:auto;text-rendering:auto;enable-background:accumulate"
       d="m 407.06711,582.36942 a 0.34407984,0.30296229 0 0 0 -0.19418,0.54462 c 0.32181,0.2195 0.55334,0.6478 0.56817,1.12719 0.0154,0.47943 -0.19104,0.92936 -0.50343,1.17789 a 0.34407984,0.30296229 0 1 0 0.46029,0.44963 c 0.49458,-0.39346 0.75335,-1.00533 0.73359,-1.64333 -0.0195,-0.638 -0.315,-1.23283 -0.83789,-1.58949 a 0.34407984,0.30296229 0 0 0 -0.22655,-0.0666 z"
       id="path12678"
       inkscape:connector-curvature="0" />
    <ellipse
       style="opacity:1;fill:#4d4d4d;fill-opacity:1;stroke:none;stroke-width:0;stroke-miterlimit:4;stroke-dasharray:none;stroke-opacity:0.94117647"
       id="path12680"
       cx="404.54892"
       cy="584.1485"
       rx="1.4021046"
       ry="1.4036117" />
    <use
       x="0"
       y="0"
       xlink:href="#path12674"
       id="use13094"
       transform="matrix(-1.00001,0,0,1.00001,808.98145,-0.00668721)"
       width="100%"
       height="100%"
       style="opacity:1;fill:#4d4d4d;fill-opacity:1;stroke:none;stroke-opacity:1" />
    <use
       x="0"
       y="0"
       xlink:href="#path12678"
       id="use13098"
       transform="matrix(-1.0170849,0,0,1.00001,815.94873,0.01563667)"
       width="100%"
       height="100%"
       style="opacity:1;fill:#4d4d4d;fill-opacity:1;stroke:none;stroke-width:0;stroke-miterlimit:4;stroke-dasharray:none;stroke-opacity:1" />
    <rect
       style="opacity:1;fill:#4d4d4d;fill-opacity:1;stroke:none;stroke-width:0;stroke-linecap:square;stroke-linejoin:round;stroke-miterlimit:5;stroke-dasharray:none;stroke-opacity:0.94117647"
       id="rect13100"
       width="0.91741502"
       height="2.7161136"
       x="404.01526"
       y="586.0144"
       ry="0.70025426"
       rx="0" />
    <path
       style="fill:#4d4d4d;fill-opacity:1;stroke:none;stroke-width:0;stroke-miterlimit:4;stroke-dasharray:none;stroke-opacity:1"
       d="M 2.9921875 10.542969 C 2.438182 10.542969 1.9921875 11.032947 1.9921875 11.642578 L 1.9921875 13.84375 C 1.9921875 14.453381 2.438182 14.945313 2.9921875 14.945312 L 12.992188 14.945312 C 13.546193 14.945312 13.992188 14.453381 13.992188 13.84375 L 13.992188 11.642578 C 13.992188 11.032947 13.546192 10.542969 12.992188 10.542969 L 2.9921875 10.542969 z M 4.5 11.556641 A 1.2745535 1.1852952 0 0 1 5.7734375 12.742188 A 1.2745535 1.1852952 0 0 1 4.5 13.927734 A 1.2745535 1.1852952 0 0 1 3.2246094 12.742188 A 1.2745535 1.1852952 0 0 1 4.5 11.556641 z M 8.4570312 11.931641 L 11.992188 11.931641 C 12.368116 11.931641 12.671875 12.233446 12.671875 12.609375 C 12.671875 12.985304 12.368116 13.289063 11.992188 13.289062 L 8.4570312 13.289062 C 8.0811028 13.289062 7.7792969 12.985304 7.7792969 12.609375 C 7.7792969 12.233446 8.0811028 11.931641 8.4570312 11.931641 z "
       transform="translate(396.46472,578.76653)"
       id="rect4314" />
  </g>
</svg>
