<?xml version="1.0" encoding="UTF-8" standalone="no"?>
<!-- Created with Inkscape (http://www.inkscape.org/) -->

<svg
   xmlns:dc="http://purl.org/dc/elements/1.1/"
   xmlns:cc="http://creativecommons.org/ns#"
   xmlns:rdf="http://www.w3.org/1999/02/22-rdf-syntax-ns#"
   xmlns:svg="http://www.w3.org/2000/svg"
   xmlns="http://www.w3.org/2000/svg"
   xmlns:xlink="http://www.w3.org/1999/xlink"
   xmlns:sodipodi="http://sodipodi.sourceforge.net/DTD/sodipodi-0.dtd"
   xmlns:inkscape="http://www.inkscape.org/namespaces/inkscape"
   id="svg2"
   height="15.999996"
   width="16.000002"
   version="1.1"
   viewBox="0 0 15.999843 15.999837"
   inkscape:version="0.91 r"
   sodipodi:docname="foobnix-pause-symbolic.svg">
  <sodipodi:namedview
     pagecolor="#ffffff"
     bordercolor="#666666"
     borderopacity="1"
     objecttolerance="10"
     gridtolerance="10"
     guidetolerance="10"
     inkscape:pageopacity="0"
     inkscape:pageshadow="2"
     inkscape:window-width="1886"
     inkscape:window-height="1180"
     id="namedview4224"
     showgrid="true"
     inkscape:zoom="2.27"
     inkscape:cx="12.478054"
     inkscape:cy="9.737506"
     inkscape:window-x="32"
     inkscape:window-y="-3"
     inkscape:window-maximized="1"
     inkscape:current-layer="layer1"
     units="px"
     fit-margin-top="0"
     fit-margin-left="0"
     fit-margin-right="0"
     fit-margin-bottom="0">
    <inkscape:grid
       type="xygrid"
       id="grid4150"
       originx="-0.0015383084"
       originy="-0.00055150682" />
  </sodipodi:namedview>
  <defs
     id="defs4">
    <linearGradient
       id="linearGradient8609"
       y2="512.51001"
       gradientUnits="userSpaceOnUse"
       x2="338.45999"
       y1="520.35968"
       x1="338.62976"
       gradientTransform="matrix(3.1811131,0,0,3.2346844,-737.93556,-1162.7841)"
       xlink:href="#linearGradient12222">
      <stop
         id="stop8605"
         stop-color="#10568c"
         offset="0" />
      <stop
         id="stop8607"
         stop-color="#10568c"
         stop-opacity="0"
         offset="1" />
    </linearGradient>
    <clipPath
       id="clipPath11116"
       clipPathUnits="userSpaceOnUse">
      <rect
         id="rect11118"
         ry="0.75905001"
         height="12.725"
         width="12.809"
         y="514.02002"
         x="331.57001"
         style="fill:#ffffff;stroke-width:0" />
    </clipPath>
    <filter
       id="filter12218"
       style="color-interpolation-filters:sRGB"
       height="1.1207"
       width="1.1194"
       y="-0.060325999"
       x="-0.059677001">
      <feGaussianBlur
         id="feGaussianBlur12220"
         stdDeviation="0.47315045" />
    </filter>
    <linearGradient
       id="linearGradient12222"
       y2="516.72998"
       gradientUnits="userSpaceOnUse"
       x2="340.60001"
       gradientTransform="translate(0.30633,0.26804)"
       y1="516.72998"
       x1="335.42999">
      <stop
         id="stop11482"
         stop-color="#d0d0d0"
         offset="0" />
      <stop
         id="stop11484"
         stop-color="#d0d0d0"
         stop-opacity="0"
         offset="1" />
    </linearGradient>
  </defs>
  <metadata
     id="metadata7">
    <rdf:RDF>
      <cc:Work
         rdf:about="">
        <dc:format>image/svg+xml</dc:format>
        <dc:type
           rdf:resource="http://purl.org/dc/dcmitype/StillImage" />
        <dc:title></dc:title>
      </cc:Work>
    </rdf:RDF>
  </metadata>
  <g
     id="layer1"
     transform="translate(-330.00154,-512.35961)">
    <path
       style="fill:#bebebe;fill-opacity:1;stroke:none;stroke-width:0"
       d="M 2.3378906 0 C 1.0449375 0 0.00390625 1.0412122 0.00390625 2.3339844 L 0.00390625 13.666016 C 0.00390625 14.958788 1.0449375 15.998047 2.3378906 15.998047 L 13.666016 15.998047 C 14.958968 15.998047 16 14.958788 16 13.666016 L 16 2.3339844 C 16 1.0412122 14.958968 0 13.666016 0 L 2.3378906 0 z M 2.609375 1.1640625 L 13.332031 1.1640625 C 14.124099 1.1640625 14.761719 1.8337365 14.761719 2.6660156 L 14.761719 13.382812 C 14.761719 14.215092 14.124099 14.884766 13.332031 14.884766 L 2.609375 14.884766 C 1.8173169 14.884766 1.1796875 14.215092 1.1796875 13.382812 L 1.1796875 2.6660156 C 1.1796875 1.8337365 1.8173169 1.1640625 2.609375 1.1640625 z M 4.1132812 4.0234375 L 4.1132812 12.050781 L 7.1054688 12.050781 L 7.1054688 4.0234375 L 4.1132812 4.0234375 z M 8.9980469 4.0234375 L 8.9980469 12.050781 L 11.994141 12.050781 L 11.994141 4.0234375 L 8.9980469 4.0234375 z "
       transform="matrix(0.99998999,0,0,0.99998999,330.00154,512.35961)"
       id="rect4557" />
    <path
       id="rect3340"
       d="m 330.00154,512.36054 0,15.99891 15.99692,0 0,-15.99891 -15.99692,0 z"
       inkscape:connector-curvature="0"
       style="fill-opacity:0" />
  </g>
</svg>
