<?xml version="1.0" encoding="UTF-8" standalone="no"?>
<!-- Created with Inkscape (http://www.inkscape.org/) -->

<svg
   xmlns:dc="http://purl.org/dc/elements/1.1/"
   xmlns:cc="http://creativecommons.org/ns#"
   xmlns:rdf="http://www.w3.org/1999/02/22-rdf-syntax-ns#"
   xmlns:svg="http://www.w3.org/2000/svg"
   xmlns="http://www.w3.org/2000/svg"
   xmlns:xlink="http://www.w3.org/1999/xlink"
   xmlns:sodipodi="http://sodipodi.sourceforge.net/DTD/sodipodi-0.dtd"
   xmlns:inkscape="http://www.inkscape.org/namespaces/inkscape"
   id="svg2"
   height="4.5156mm"
   width="4.5156mm"
   version="1.1"
   viewBox="0 0 15.999999 15.999999"
   inkscape:version="0.91 r"
   sodipodi:docname="foobnix-radio-symbolic.svg">
  <sodipodi:namedview
     pagecolor="#ffffff"
     bordercolor="#666666"
     borderopacity="1"
     objecttolerance="10"
     gridtolerance="10"
     guidetolerance="10"
     inkscape:pageopacity="0"
     inkscape:pageshadow="2"
     inkscape:window-width="1886"
     inkscape:window-height="1180"
     id="namedview11431"
     showgrid="false"
     inkscape:zoom="41.718888"
     inkscape:cx="3.4003205"
     inkscape:cy="8.0221218"
     inkscape:window-x="32"
     inkscape:window-y="-3"
     inkscape:window-maximized="1"
     inkscape:current-layer="svg2"
     inkscape:snap-bbox="true"
     inkscape:snap-bbox-midpoints="false"
     inkscape:snap-object-midpoints="true"
     inkscape:snap-others="false" />
  <defs
     id="defs4">
    <linearGradient
       id="linearGradient8609"
       y2="512.51"
       gradientUnits="userSpaceOnUse"
       x2="338.46"
       y1="520.48"
       x1="338.57">
      <stop
         id="stop8605"
         stop-color="#10568c"
         offset="0" />
      <stop
         id="stop8607"
         stop-color="#10568c"
         stop-opacity="0"
         offset="1" />
    </linearGradient>
    <clipPath
       id="clipPath11116"
       clipPathUnits="userSpaceOnUse">
      <rect
         id="rect11118"
         ry=".75905"
         height="12.725"
         width="12.809"
         y="514.02"
         x="331.57"
         stroke-width="0"
         fill="#fff" />
    </clipPath>
    <filter
       id="filter12218"
       style="color-interpolation-filters:sRGB"
       height="1.1207"
       width="1.1194"
       y="-.060326"
       x="-.059677">
      <feGaussianBlur
         id="feGaussianBlur12220"
         stdDeviation="0.47315045" />
    </filter>
    <linearGradient
       id="linearGradient12222"
       y2="516.73"
       gradientUnits="userSpaceOnUse"
       x2="340.6"
       gradientTransform="translate(.30633 .26804)"
       y1="516.73"
       x1="335.43">
      <stop
         id="stop11482"
         stop-color="#d0d0d0"
         offset="0" />
      <stop
         id="stop11484"
         stop-color="#d0d0d0"
         stop-opacity="0"
         offset="1" />
    </linearGradient>
    <clipPath
       id="clipPath11116-8"
       clipPathUnits="userSpaceOnUse">
      <rect
         style="fill:#ffffff;stroke-width:0"
         id="rect11118-1"
         ry="0.75905001"
         height="12.725"
         width="12.809"
         y="514.02002"
         x="331.57001" />
    </clipPath>
    <filter
       id="filter12218-8"
       style="color-interpolation-filters:sRGB"
       height="1.1207"
       width="1.1194"
       y="-0.060325999"
       x="-0.059677001">
      <feGaussianBlur
         id="feGaussianBlur12220-8"
         stdDeviation="0.47315045" />
    </filter>
  </defs>
  <metadata
     id="metadata7">
    <rdf:RDF>
      <cc:Work
         rdf:about="">
        <dc:format>image/svg+xml</dc:format>
        <dc:type
           rdf:resource="http://purl.org/dc/dcmitype/StillImage" />
        <dc:title></dc:title>
      </cc:Work>
    </rdf:RDF>
  </metadata>
  <g
     id="layer1"
     transform="translate(-330 -512.36)"
     style="stroke:none">
    <path
       style="stroke:none;stroke-opacity:0.94117647;fill:#bebebe;fill-opacity:1"
       d="M 2.1425781 0.58007812 C 1.21063 0.58007812 0.4609375 1.3297706 0.4609375 2.2617188 L 0.4609375 13.736328 C 0.4609375 14.668276 1.21063 15.417969 2.1425781 15.417969 L 13.863281 15.417969 C 14.795229 15.417969 15.546875 14.668276 15.546875 13.736328 L 15.546875 2.2617188 C 15.546875 1.3297706 14.795229 0.58007812 13.863281 0.58007812 L 2.1425781 0.58007812 z M 2.328125 1.6601562 L 13.619141 1.6601562 C 14.039659 1.6601562 14.378906 1.999404 14.378906 2.4199219 L 14.378906 13.626953 C 14.378906 14.047471 14.039659 14.384766 13.619141 14.384766 L 2.328125 14.384766 C 1.9076071 14.384766 1.5703125 14.047471 1.5703125 13.626953 L 1.5703125 2.4199219 C 1.5703125 1.999404 1.9076071 1.6601562 2.328125 1.6601562 z "
       transform="matrix(0.99998999,0,0,0.99998999,330,512.36)"
       id="rect4557" />
    <path
       id="rect3340"
       d="m330 512.36v16h16v-16h-16z"
       fill-opacity="0"
       style="stroke:none" />
  </g>
  <path
     style="color:#000000;font-style:normal;font-variant:normal;font-weight:normal;font-stretch:normal;font-size:medium;line-height:normal;font-family:sans-serif;text-indent:0;text-align:start;text-decoration:none;text-decoration-line:none;text-decoration-style:solid;text-decoration-color:#000000;letter-spacing:normal;word-spacing:normal;text-transform:none;direction:ltr;block-progression:tb;writing-mode:lr-tb;baseline-shift:baseline;text-anchor:start;white-space:normal;clip-rule:nonzero;display:inline;overflow:visible;visibility:visible;opacity:1;isolation:auto;mix-blend-mode:normal;color-interpolation:sRGB;color-interpolation-filters:linearRGB;solid-color:#000000;solid-opacity:1;fill:#bebebe;fill-opacity:1;fill-rule:nonzero;stroke:none;stroke-width:0.46140653;stroke-linecap:round;stroke-linejoin:miter;stroke-miterlimit:4;stroke-dasharray:none;stroke-dashoffset:0;stroke-opacity:1;color-rendering:auto;image-rendering:auto;shape-rendering:auto;text-rendering:auto;enable-background:accumulate"
     d="m 10.357422,3.9589844 a 0.23072633,0.23072633 0 0 0 -0.142578,0.4023437 c 1.140478,1.0471167 1.213528,2.6125537 0.179687,3.734375 a 0.23084096,0.23084096 0 1 0 0.339844,0.3125 C 11.924822,7.1164483 11.832027,5.2211574 10.525391,4.0214844 a 0.23072633,0.23072633 0 0 0 -0.167969,-0.0625 z"
     id="path12674"
     inkscape:connector-curvature="0" />
  <path
     style="color:#000000;font-style:normal;font-variant:normal;font-weight:normal;font-stretch:normal;font-size:medium;line-height:normal;font-family:sans-serif;text-indent:0;text-align:start;text-decoration:none;text-decoration-line:none;text-decoration-style:solid;text-decoration-color:#000000;letter-spacing:normal;word-spacing:normal;text-transform:none;direction:ltr;block-progression:tb;writing-mode:lr-tb;baseline-shift:baseline;text-anchor:start;white-space:normal;clip-rule:nonzero;display:inline;overflow:visible;visibility:visible;opacity:1;isolation:auto;mix-blend-mode:normal;color-interpolation:sRGB;color-interpolation-filters:linearRGB;solid-color:#000000;solid-opacity:1;fill:#bebebe;fill-opacity:1;fill-rule:nonzero;stroke:none;stroke-width:0.45955059;stroke-linecap:round;stroke-linejoin:miter;stroke-miterlimit:4;stroke-dasharray:none;stroke-dashoffset:0;stroke-opacity:1;color-rendering:auto;image-rendering:auto;shape-rendering:auto;text-rendering:auto;enable-background:accumulate"
     d="M 9.8398438,4.6191406 A 0.22979827,0.22979827 0 0 0 9.703125,5.0136719 c 0.72651,0.7255973 0.754334,1.7074714 0.074219,2.4589843 A 0.2302474,0.2302474 0 0 0 10.119141,7.78125 C 10.944603,6.8691316 10.904125,5.5631804 10.027344,4.6875 A 0.22979827,0.22979827 0 0 0 9.8398438,4.6191406 Z"
     id="path12676"
     inkscape:connector-curvature="0" />
  <path
     style="color:#000000;font-style:normal;font-variant:normal;font-weight:normal;font-stretch:normal;font-size:medium;line-height:normal;font-family:sans-serif;text-indent:0;text-align:start;text-decoration:none;text-decoration-line:none;text-decoration-style:solid;text-decoration-color:#000000;letter-spacing:normal;word-spacing:normal;text-transform:none;direction:ltr;block-progression:tb;writing-mode:lr-tb;baseline-shift:baseline;text-anchor:start;white-space:normal;clip-rule:nonzero;display:inline;overflow:visible;visibility:visible;opacity:1;isolation:auto;mix-blend-mode:normal;color-interpolation:sRGB;color-interpolation-filters:linearRGB;solid-color:#000000;solid-opacity:1;fill:#bebebe;fill-opacity:1;fill-rule:nonzero;stroke:none;stroke-width:0.37372133;stroke-linecap:round;stroke-linejoin:round;stroke-miterlimit:5;stroke-dasharray:none;stroke-dashoffset:0;stroke-opacity:1;color-rendering:auto;image-rendering:auto;shape-rendering:auto;text-rendering:auto;enable-background:accumulate"
     d="M 9.2441406,5.1953125 A 0.18687935,0.18687935 0 0 0 9.1386719,5.53125 C 9.3134602,5.6666553 9.4392076,5.9308438 9.4472656,6.2265625 9.4553236,6.5222812 9.34351,6.7998286 9.1738281,6.953125 a 0.18687935,0.18687935 0 1 0 0.25,0.2773438 C 9.6924589,6.9877784 9.8329893,6.6103441 9.8222656,6.2167969 9.8115419,5.8232497 9.6511867,5.4563371 9.3671875,5.2363281 A 0.18687935,0.18687935 0 0 0 9.2441406,5.1953125 Z"
     id="path12678"
     inkscape:connector-curvature="0" />
  <ellipse
     style="opacity:1;fill:#bebebe;fill-opacity:1;stroke:none;stroke-width:0;stroke-miterlimit:4;stroke-dasharray:none;stroke-opacity:0.94117647"
     id="path12680"
     cx="7.755785"
     cy="6.2837558"
     rx="0.87534934"
     ry="0.82986587" />
  <use
     x="0"
     y="0"
     xlink:href="#path12674"
     id="use13094"
     transform="matrix(-1,0,0,1,15.429363,0.1016949)"
     width="100%"
     height="100%"
     style="opacity:1;fill:#bebebe;fill-opacity:1;stroke:none;stroke-opacity:1" />
  <use
     x="0"
     y="0"
     xlink:href="#path12676"
     id="use13096"
     transform="matrix(-1,0,0,1,15.429363,0.1016949)"
     width="100%"
     height="100%"
     style="opacity:1;fill:#bebebe;fill-opacity:1;stroke:none;stroke-opacity:0.94117647" />
  <use
     x="0"
     y="0"
     xlink:href="#path12678"
     id="use13098"
     transform="matrix(-1,0,0,1,15.429363,0.1016949)"
     width="100%"
     height="100%"
     style="opacity:1;fill:#27699c;fill-opacity:1;stroke:none;stroke-opacity:1" />
  <rect
     style="opacity:1;fill:#bebebe;fill-opacity:1;stroke:none;stroke-width:0;stroke-linecap:square;stroke-linejoin:round;stroke-miterlimit:5;stroke-dasharray:none;stroke-opacity:0.94117647"
     id="rect13100"
     width="0.52542686"
     height="2.1694751"
     x="7.5254216"
     y="7.2203565"
     ry="0.55932277"
     rx="0" />
  <path
     style="opacity:1;fill:#bebebe;fill-opacity:1;stroke:none;stroke-width:0;stroke-linecap:square;stroke-linejoin:round;stroke-miterlimit:5;stroke-dasharray:none;stroke-opacity:1"
     d="M 3.4746094 9.5429688 C 3.1647444 9.5429688 2.9160156 9.7916986 2.9160156 10.101562 L 2.9160156 12.441406 C 2.9160156 12.751271 3.1647444 13 3.4746094 13 L 12.423828 13 C 12.733693 13 12.982422 12.751271 12.982422 12.441406 L 12.982422 10.101562 C 12.982422 9.7916986 12.733693 9.5429686 12.423828 9.5429688 L 3.4746094 9.5429688 z M 11.931641 10.101562 A 0.44068232 0.44068232 0 0 1 12.373047 10.542969 A 0.44068232 0.44068232 0 0 1 11.931641 10.982422 A 0.44068232 0.44068232 0 0 1 11.492188 10.542969 A 0.44068232 0.44068232 0 0 1 11.931641 10.101562 z M 7.8476562 10.660156 A 0.67797279 0.67797279 0 0 1 8.5253906 11.339844 A 0.67797279 0.67797279 0 0 1 7.8476562 12.017578 A 0.67797279 0.67797279 0 0 1 7.1699219 11.339844 A 0.67797279 0.67797279 0 0 1 7.8476562 10.660156 z M 11.966797 11.626953 A 0.45763164 0.44068232 0 0 1 12.423828 12.068359 A 0.45763164 0.44068232 0 0 1 11.966797 12.507812 A 0.45763164 0.44068232 0 0 1 11.507812 12.068359 A 0.45763164 0.44068232 0 0 1 11.966797 11.626953 z "
     transform="scale(0.99998999,0.99998999)"
     id="rect13102" />
</svg>
