<?xml version="1.0" encoding="UTF-8" standalone="no"?>
<!-- Created with Inkscape (http://www.inkscape.org/) -->

<svg
   xmlns:dc="http://purl.org/dc/elements/1.1/"
   xmlns:cc="http://creativecommons.org/ns#"
   xmlns:rdf="http://www.w3.org/1999/02/22-rdf-syntax-ns#"
   xmlns:svg="http://www.w3.org/2000/svg"
   xmlns="http://www.w3.org/2000/svg"
   xmlns:xlink="http://www.w3.org/1999/xlink"
   xmlns:sodipodi="http://sodipodi.sourceforge.net/DTD/sodipodi-0.dtd"
   xmlns:inkscape="http://www.inkscape.org/namespaces/inkscape"
   id="svg2"
   height="15.999996"
   width="16.000002"
   version="1.1"
   viewBox="0 0 15.999843 15.999837"
   inkscape:version="0.91 r"
   sodipodi:docname="foobnix-stop-symbolic.svg">
  <sodipodi:namedview
     pagecolor="#ffffff"
     bordercolor="#666666"
     borderopacity="1"
     objecttolerance="10"
     gridtolerance="10"
     guidetolerance="10"
     inkscape:pageopacity="0"
     inkscape:pageshadow="2"
     inkscape:window-width="1886"
     inkscape:window-height="1180"
     id="namedview4224"
     showgrid="true"
     inkscape:zoom="51.364237"
     inkscape:cx="12.478054"
     inkscape:cy="7.6293413"
     inkscape:window-x="32"
     inkscape:window-y="-3"
     inkscape:window-maximized="1"
     inkscape:current-layer="layer1"
     units="px"
     fit-margin-top="0"
     fit-margin-left="0"
     fit-margin-right="0"
     fit-margin-bottom="0">
    <inkscape:grid
       type="xygrid"
       id="grid4150"
       originx="-0.0015383084"
       originy="-0.00055150682" />
  </sodipodi:namedview>
  <defs
     id="defs4">
    <linearGradient
       id="linearGradient8609"
       y2="512.51001"
       gradientUnits="userSpaceOnUse"
       x2="338.45999"
       y1="520.35968"
       x1="338.62976"
       gradientTransform="matrix(3.1811131,0,0,3.2346844,-737.93556,-1162.7841)"
       xlink:href="#linearGradient12222">
      <stop
         id="stop8605"
         stop-color="#10568c"
         offset="0" />
      <stop
         id="stop8607"
         stop-color="#10568c"
         stop-opacity="0"
         offset="1" />
    </linearGradient>
    <clipPath
       id="clipPath11116"
       clipPathUnits="userSpaceOnUse">
      <rect
         id="rect11118"
         ry="0.75905001"
         height="12.725"
         width="12.809"
         y="514.02002"
         x="331.57001"
         style="fill:#ffffff;stroke-width:0" />
    </clipPath>
    <filter
       id="filter12218"
       style="color-interpolation-filters:sRGB"
       height="1.1207"
       width="1.1194"
       y="-0.060325999"
       x="-0.059677001">
      <feGaussianBlur
         id="feGaussianBlur12220"
         stdDeviation="0.47315045" />
    </filter>
    <linearGradient
       id="linearGradient12222"
       y2="516.72998"
       gradientUnits="userSpaceOnUse"
       x2="340.60001"
       gradientTransform="translate(0.30633,0.26804)"
       y1="516.72998"
       x1="335.42999">
      <stop
         id="stop11482"
         stop-color="#d0d0d0"
         offset="0" />
      <stop
         id="stop11484"
         stop-color="#d0d0d0"
         stop-opacity="0"
         offset="1" />
    </linearGradient>
  </defs>
  <metadata
     id="metadata7">
    <rdf:RDF>
      <cc:Work
         rdf:about="">
        <dc:format>image/svg+xml</dc:format>
        <dc:type
           rdf:resource="http://purl.org/dc/dcmitype/StillImage" />
        <dc:title></dc:title>
      </cc:Work>
    </rdf:RDF>
  </metadata>
  <g
     id="layer1"
     transform="translate(-330.00154,-512.35961)">
    <path
       style="fill:#bebebe;fill-opacity:1;stroke:none;stroke-width:0"
       d="m 18.337891,16 c -1.292953,0 -2.333985,1.041212 -2.333985,2.333984 l 0,11.332032 c 0,1.292772 1.041032,2.332031 2.333985,2.332031 l 11.328125,0 C 30.958968,31.998047 32,30.958788 32,29.666016 L 32,18.333984 C 32,17.041212 30.958968,16 29.666016,16 l -11.328125,0 z m 0.271484,1.164062 10.722656,0 c 0.792068,0 1.429688,0.669675 1.429688,1.501954 l 0,10.716796 c 0,0.832279 -0.63762,1.501954 -1.429688,1.501954 l -10.722656,0 c -0.792058,0 -1.429687,-0.669675 -1.429687,-1.501954 l 0,-10.716796 c 0,-0.832279 0.637629,-1.501954 1.429687,-1.501954 z m 1.503906,2.859376 0,8.027343 7.88086,0 0,-8.027343 -7.88086,0 z"
       transform="matrix(0.99999011,0,0,0.99999011,314.0017,496.35977)"
       id="rect4557"
       inkscape:connector-curvature="0" />
    <path
       id="rect3340"
       d="m 330.00154,512.36054 0,15.99891 15.99692,0 0,-15.99891 -15.99692,0 z"
       inkscape:connector-curvature="0"
       style="fill-opacity:0" />
  </g>
</svg>
