<?xml version="1.0" encoding="UTF-8" standalone="no"?>
<!-- Created with Inkscape (http://www.inkscape.org/) -->

<svg
   xmlns:dc="http://purl.org/dc/elements/1.1/"
   xmlns:cc="http://creativecommons.org/ns#"
   xmlns:rdf="http://www.w3.org/1999/02/22-rdf-syntax-ns#"
   xmlns:svg="http://www.w3.org/2000/svg"
   xmlns="http://www.w3.org/2000/svg"
   xmlns:sodipodi="http://sodipodi.sourceforge.net/DTD/sodipodi-0.dtd"
   xmlns:inkscape="http://www.inkscape.org/namespaces/inkscape"
   id="svg2"
   height="16.000158"
   width="16.000158"
   version="1.1"
   viewBox="0 0 15.999999 15.999999"
   inkscape:version="0.91 r"
   sodipodi:docname="foobnix-symbolic.svg">
  <sodipodi:namedview
     pagecolor="#ffffff"
     bordercolor="#666666"
     borderopacity="1"
     objecttolerance="10"
     gridtolerance="10"
     guidetolerance="10"
     inkscape:pageopacity="0"
     inkscape:pageshadow="2"
     inkscape:window-width="1886"
     inkscape:window-height="1180"
     id="namedview30"
     showgrid="false"
     inkscape:zoom="14.749854"
     inkscape:cx="-3.7288505"
     inkscape:cy="2.5762967"
     inkscape:window-x="32"
     inkscape:window-y="-3"
     inkscape:window-maximized="1"
     inkscape:current-layer="layer1"
     units="px" />
  <defs
     id="defs4">
    <linearGradient
       id="linearGradient8609"
       y2="512.51001"
       gradientUnits="userSpaceOnUse"
       x2="338.45999"
       y1="520.47998"
       x1="338.57001">
      <stop
         id="stop8605"
         stop-color="#10568c"
         offset="0" />
      <stop
         id="stop8607"
         stop-color="#10568c"
         stop-opacity="0"
         offset="1" />
    </linearGradient>
    <clipPath
       id="clipPath11116"
       clipPathUnits="userSpaceOnUse">
      <rect
         id="rect11118"
         ry="0.75905001"
         height="12.725"
         width="12.809"
         y="514.02002"
         x="331.57001"
         style="fill:#ffffff;stroke-width:0" />
    </clipPath>
    <filter
       id="filter12218"
       style="color-interpolation-filters:sRGB"
       height="1.1207"
       width="1.1194"
       y="-0.060325999"
       x="-0.059677001">
      <feGaussianBlur
         id="feGaussianBlur12220"
         stdDeviation="0.47315045" />
    </filter>
    <linearGradient
       id="linearGradient12222"
       y2="516.72998"
       gradientUnits="userSpaceOnUse"
       x2="340.60001"
       gradientTransform="translate(0.30633,0.26804)"
       y1="516.72998"
       x1="335.42999">
      <stop
         id="stop11482"
         stop-color="#d0d0d0"
         offset="0" />
      <stop
         id="stop11484"
         stop-color="#d0d0d0"
         stop-opacity="0"
         offset="1" />
    </linearGradient>
  </defs>
  <metadata
     id="metadata7">
    <rdf:RDF>
      <cc:Work
         rdf:about="">
        <dc:format>image/svg+xml</dc:format>
        <dc:type
           rdf:resource="http://purl.org/dc/dcmitype/StillImage" />
        <dc:title></dc:title>
      </cc:Work>
    </rdf:RDF>
  </metadata>
  <g
     id="layer1"
     transform="translate(-330,-512.36)">
    <path
       style="fill:#bebebe;fill-opacity:1;stroke-width:0;stroke:none"
       d="M 2.1425781 0.58007812 C 1.21063 0.58007812 0.4609375 1.3297706 0.4609375 2.2617188 L 0.4609375 13.736328 C 0.4609375 14.668276 1.21063 15.417969 2.1425781 15.417969 L 13.863281 15.417969 C 14.795229 15.417969 15.546875 14.668276 15.546875 13.736328 L 15.546875 2.2617188 C 15.546875 1.3297706 14.795229 0.58007812 13.863281 0.58007812 L 2.1425781 0.58007812 z M 2.328125 1.6601562 L 13.619141 1.6601562 C 14.039659 1.6601562 14.378906 1.999404 14.378906 2.4199219 L 14.378906 13.626953 C 14.378906 14.047471 14.039659 14.384766 13.619141 14.384766 L 2.328125 14.384766 C 1.9076071 14.384766 1.5703125 14.047471 1.5703125 13.626953 L 1.5703125 2.4199219 C 1.5703125 1.999404 1.9076071 1.6601562 2.328125 1.6601562 z "
       transform="matrix(0.99998999,0,0,0.99998999,330,512.36)"
       id="rect4557" />
    <path
       id="rect3340"
       d="m 330,512.36 0,16 16,0 0,-16 -16,0 z"
       inkscape:connector-curvature="0"
       style="fill-opacity:0" />
    <path
       style="fill:#ffffff;stroke-width:0"
       inkscape:connector-curvature="0"
       d="m 342.75,520.41 -4.551,2.6164 -4.5664,2.5894 0.01,-5.2494 0.0407,-5.2493 4.5414,2.633 z"
       id="path11128" />
    <path
       inkscape:connector-curvature="0"
       style="fill:#bebebe;fill-opacity:1;stroke-width:0;stroke:none"
       d="m 342.75,520.41 -4.551,2.6164 -4.5664,2.5894 0.01,-5.2495 0.0407,-5.2493 4.5414,2.633 z"
       id="path4169" />
  </g>
</svg>
